/* XPM */
static char * pygame_salud_xpm[] = {
"32 30 256 2",
"  	c None",
". 	c #0D1214",
"+ 	c #131115",
"@ 	c #111310",
"# 	c #1A1615",
"$ 	c #171816",
"% 	c #1B1D1B",
"& 	c #231F1E",
"* 	c #1F211E",
"= 	c #262610",
"- 	c #272926",
"; 	c #2A2E30",
"> 	c #323331",
", 	c #3B3D3A",
"' 	c #564945",
") 	c #4E504D",
"! 	c #56554E",
"~ 	c #565760",
"{ 	c #756259",
"] 	c #6E721F",
"^ 	c #757D18",
"/ 	c #7E8518",
"( 	c #F8597C",
"_ 	c #F75981",
": 	c #F96286",
"< 	c #F76887",
"[ 	c #A18572",
"} 	c #938B85",
"| 	c #F36F95",
"1 	c #90928F",
"2 	c #EC7985",
"3 	c #FB7495",
"4 	c #FE7779",
"5 	c #F77895",
"6 	c #9F929F",
"7 	c #D48778",
"8 	c #FB7A91",
"9 	c #EF8184",
"0 	c #BA9093",
"a 	c #B29588",
"b 	c #AE968D",
"c 	c #F87F99",
"d 	c #FC8195",
"e 	c #F8838F",
"f 	c #F484A0",
"g 	c #B79B87",
"h 	c #C29888",
"i 	c #FE878D",
"j 	c #AFA365",
"k 	c #AE9F9A",
"l 	c #FC8899",
"m 	c #A6A0AB",
"n 	c #BD9C8F",
"o 	c #E29384",
"p 	c #A7A5A9",
"q 	c #DC9A85",
"r 	c #FD8F97",
"s 	c #FF8F92",
"t 	c #DB9B8C",
"u 	c #E49A82",
"v 	c #F6957F",
"w 	c #FB90A3",
"x 	c #EF9784",
"y 	c #D09F92",
"z 	c #FA9298",
"A 	c #FE938D",
"B 	c #CBA398",
"C 	c #C5A3AA",
"D 	c #ED9B86",
"E 	c #E69D8B",
"F 	c #C1A798",
"G 	c #FF9784",
"H 	c #B0AAB5",
"I 	c #BBAF77",
"J 	c #FA999B",
"K 	c #F99B90",
"L 	c #BCABB3",
"M 	c #CBA99C",
"N 	c #FE9D87",
"O 	c #FA9F86",
"P 	c #CBAAAA",
"Q 	c #E3A68F",
"R 	c #D6AA94",
"S 	c #D5AA9A",
"T 	c #FFA08F",
"U 	c #E2A896",
"V 	c #B7B1BC",
"W 	c #BBB1B8",
"X 	c #B6B3B8",
"Y 	c #D3AE9C",
"Z 	c #CEAFA2",
"` 	c #F6A595",
" .	c #E3AA9E",
"..	c #FDA2A2",
"+.	c #FFA48B",
"@.	c #FDA491",
"#.	c #EBA99A",
"$.	c #D5AEAA",
"%.	c #BDB5AE",
"&.	c #B5B6BF",
"*.	c #CCB1B5",
"=.	c #BCB5C1",
"-.	c #FBA5A9",
";.	c #CFB788",
">.	c #DCB1A1",
",.	c #D5B3A6",
"'.	c #E9AE9D",
").	c #C9B7AC",
"!.	c #F6AC99",
"~.	c #FAABA0",
"{.	c #FEAB95",
"].	c #F9ABA6",
"^.	c #FBAAB3",
"/.	c #D1B8AF",
"(.	c #C1BCBA",
"_.	c #D4B8AA",
":.	c #FBAF96",
"<.	c #C5C934",
"[.	c #DCB7A5",
"}.	c #BFBDC1",
"|.	c #C5BCC2",
"1.	c #C6C099",
"2.	c #E3B7A7",
"3.	c #FCB19E",
"4.	c #F6B3A4",
"5.	c #FAB0B6",
"6.	c #FEB3A0",
"7.	c #D8BDAE",
"8.	c #F4B9A7",
"9.	c #F0BBA7",
"0.	c #C4C6C3",
"a.	c #E2BFB2",
"b.	c #CDC3C9",
"c.	c #C8C5CA",
"d.	c #EABEAD",
"e.	c #FCB8BC",
"f.	c #F0BDAF",
"g.	c #DEC2B4",
"h.	c #FFBAA5",
"i.	c #D7C3C5",
"j.	c #CFC6BF",
"k.	c #E6C1AF",
"l.	c #D7C5BA",
"m.	c #C4C9CB",
"n.	c #CDC7C6",
"o.	c #EAC0B6",
"p.	c #FFBCAC",
"q.	c #EDC1B0",
"r.	c #CEDC11",
"s.	c #F7C1AD",
"t.	c #D3CAC3",
"u.	c #F9C3AF",
"v.	c #CBCECA",
"w.	c #FEC2B0",
"x.	c #CFCDD1",
"y.	c #D2D1A1",
"z.	c #F3C6B6",
"A.	c #DBCDBB",
"B.	c #F8C5B7",
"C.	c #D5DD35",
"D.	c #EFC9B7",
"E.	c #F6C8B1",
"F.	c #EDCABD",
"G.	c #D8CED5",
"H.	c #E8CCBD",
"I.	c #D3D2C9",
"J.	c #DAD0D6",
"K.	c #D1D4D0",
"L.	c #F9CCBC",
"M.	c #FDC9CE",
"N.	c #D6D4D8",
"O.	c #F2CEC1",
"P.	c #F5CFBC",
"Q.	c #F9CCCF",
"R.	c #DDD5CE",
"S.	c #D8D7CE",
"T.	c #FCCDCA",
"U.	c #DBD6D4",
"V.	c #DAD8DC",
"W.	c #DBDCC5",
"X.	c #F9D4C1",
"Y.	c #D7DCDF",
"Z.	c #DDDBDF",
"`.	c #FFD2D5",
" +	c #F3D7C8",
".+	c #EBD9CE",
"++	c #FDD7C5",
"@+	c #FDD7D7",
"#+	c #E4E2C6",
"$+	c #FDD9E0",
"%+	c #EAF419",
"&+	c #E7E3D4",
"*+	c #FDDEC9",
"=+	c #EAE5E3",
"-+	c #D5EBEA",
";+	c #E7EAC6",
">+	c #E9E6EB",
",+	c #E3E8EA",
"'+	c #E6E8E5",
")+	c #E9EFBD",
"!+	c #F2EAE3",
"~+	c #EFEDD1",
"{+	c #E7F5AC",
"]+	c #E5F5B2",
"^+	c #EFECF1",
"/+	c #D7F4F1",
"(+	c #F0F1C6",
"_+	c #E7F0EB",
":+	c #ECF5B4",
"<+	c #E4F7BA",
"[+	c #E2F7C1",
"}+	c #F4EEED",
"|+	c #EEF0ED",
"1+	c #F6F5B0",
"2+	c #F4F5B7",
"3+	c #F4F1E1",
"4+	c #E2F9C9",
"5+	c #ECF2F4",
"6+	c #FDF4B1",
"7+	c #FBF5B8",
"8+	c #E3F8F7",
"9+	c #F5F4EB",
"0+	c #E3FBDE",
"a+	c #FBF7C0",
"b+	c #F3F5F2",
"c+	c #E7FAE6",
"d+	c #F5F8D3",
"e+	c #DEFDED",
"f+	c #FAF9C8",
"g+	c #FAF5F3",
"h+	c #DFFDFA",
"i+	c #F9FACF",
"j+	c #DCFFF4",
"k+	c #FBF7E8",
"l+	c #DAFFFB",
"m+	c #F9F6FB",
"n+	c #F8F9E2",
"o+	c #F3F8FB",
"p+	c #E4FEF5",
"q+	c #E1FFFC",
"r+	c #F1FEDE",
"s+	c #F8FAF6",
"t+	c #FFFBD8",
"u+	c #F2FCF7",
"v+	c #FEFCDF",
"w+	c #EAFFFE",
"x+	c #F1FEFF",
"y+	c #FAFCF9",
"z+	c #FDFFDB",
"A+	c #FFFCFB",
"B+	c #FBFFEE",
"C+	c #FFFEEF",
"D+	c #FFFEF4",
"E+	c #FFFDFF",
"F+	c #F9FFFF",
"G+	c #FDFFFC",
"G+G+G+G+G+G+G+G+G+G+F+G+G+g+Z.N.V.>+g+G+G+G+G+G+G+G+G+G+G+G+G+G+",
"G+G+G+G+G+G+F+G+G+G+s+c.p m.-+8+o+>+c.H N.s+G+G+F+G+G+G+G+G+G+G+",
"G+G+G+G+G+G+A+G+=+}.,+8+q+q+h+h+x+G+G+G+5+N.V G+G+G+G+G+G+G+G+G+",
"G+G+G+G+G+G+G+&+v.F+h+h+h+h+h+w+5+|+s+G+G+G+y+H >+G+G+G+G+G+G+G+",
"G+G+G+G+G+G+S.8+q+h+h+h+h+x+_+) + - $ - '+G+G+y+c.Z.G+A+G+G+G+G+",
"G+G+G+E+G+,+h+h+h+h+h+q+F+~ = / ] ; * % > v.G+G+C+0.>+G+G+G+G+G+",
"G+G+G+G+'+/+h+h+h+q+w+G+I.^ %+C.W., % $ @ @ G+t+7+i+p s+G+G+G+G+",
"G+G+E+}+-+h+h+h+w+F+t.1.r.<.y.y+1 % $ $ * @ ! f+1+2+B+W G+G+G+G+",
"G+G+G+N.h+h+h+x+!+F L.F.} N.(.- # & ' - $ % - )+{+]+d+U.g+G+G+G+",
"G+G+D+m.h+h+w+S.k.D.k.,.b { 2.a P.P.++P.' & $ ;+]+]+:+n+m G+G+G+",
"G+G+|.x+h+h+u+I ;.7._.).%.2.M ++++g.D.*+{ . , n+]+]+]+r+}.}+F+G+",
"G+G+b.x+h+w+#+r.j S R '+K.S [ P.++g Y ++P.F _.n+]+]+]+c+o+V.G+G+",
"F+s+>+w+q+G+'+[.d._.9+D+|+2.>.E.X.2.f.B.++k.7.d+{+]+<+e+x+N.G+G+",
"G+m+,+q+q+G+F d.z.A.a+7+v+2.B.k.D.9.w.L.++g.b+0+]+]+[+j+w+G.G+G+",
"G+s+|+w+w+K.d.q.[.~+6+1+f+_.L.n k X.P.++P.}+G+p+0+4+0+h+w+G.G+G+",
"G+s+|+G+G+7.d.z.a.B+a+7+v+R.,.k.,.P.a.Z R.G+F+q+l+j+p+h+w+J.G+G+",
"G+g+^+G+s+Y d.z.H.s+k+3+g.s.u.B a h #.8.a.l.}+x+w+q+h+h+x+V.G+G+",
"E+m+Y.G+j.2.d.z.2.S O.B.p.p.w.8.4.#.U u.p.h.B. +'+w+h+q+s+V.G+G+",
"G+G+&.G+).d.d.D.Q #.w.6.3.3.h.w.8.9.w.p.h.h.8.p..+x+q+x+x.^+F+G+",
"G+G+W o+j.d.q.n O !.3.3.3.3.3.3.3.3.3.3.3.!.D 3.f.G+G+G+6 G+G+G+",
"G+G+A+X s+/.Y >.N @.+.@.` 3...5 | c J 3.3.E @.3.'.G+E+=+N.G+G+G+",
"G+G+G+G.y+G+G+o.N N N N o T : 5 5 5 5 ].3.q O :.9.b+G+b.G+G+G+G+",
"G+G+F+s+V G+G+l.u v U  .7 s < c w J ( w 3.q +.K 4 z r 2 -.A+G+G+",
"G+G+G+G+|+N.G+v+f+(+z+D+y i < f d d _ l 3.t G -.G+G+G+G+@+@+E+G+",
"G+G+G+G+A+N.x.i+1+6+6+i+Z 9 : 5 < < 3 3.3. .x @+G+G+G+G+G+$+G+G+",
"G+G+G+A+G+G+V.n.t+a+6+t+l.v A e 8 8 ~.3.3.#.E Q.G+G+G+A+G+`.G+G+",
"G+G+G+G+G+G+G+g+W k+v+D+j.N N @.{.3.3.3.3.3.U i G+A+A+A+g+Q.G+G+",
"G+G+G+G+G+G+F+G+y+Z.=.x.t.{.+.+.{.3.3.` 0 i.!+e.M.M.5.^.T.g+G+G+",
"G+G+G+G+G+G+G+G+G+G+G+^+|.L C P P $.*.N.G+G+G+G+G+G+G+G+G+E+G+G+",
"G+G+G+G+G+G+G+G+G+G+G+G+G+G+y+y+y+G+G+G+G+E+G+G+G+G+G+G+G+G+G+G+"};
